<mxfile host="app.diagrams.net" modified="2024-03-25T14:17:52.203Z" agent="Mozilla/5.0 (X11; Ubuntu; Linux x86_64; rv:123.0) Gecko/20100101 Firefox/123.0" etag="sImDBvOycoA1G8Kj4UeG" version="24.0.7" type="device">
  <diagram name="Page-1" id="Qx_6xJNhMVsXJDek8HGZ">
    <mxGraphModel dx="1434" dy="682" grid="1" gridSize="10" guides="1" tooltips="1" connect="1" arrows="1" fold="1" page="1" pageScale="1" pageWidth="850" pageHeight="1100" math="0" shadow="0">
      <root>
        <mxCell id="0" />
        <mxCell id="1" parent="0" />
        <object placeholders="1" c4Name="Player" c4Type="Person" c4Description="A person that plays the game." label="&lt;font style=&quot;font-size: 16px&quot;&gt;&lt;b&gt;%c4Name%&lt;/b&gt;&lt;/font&gt;&lt;div&gt;[%c4Type%]&lt;/div&gt;&lt;br&gt;&lt;div&gt;&lt;font style=&quot;font-size: 11px&quot;&gt;&lt;font&gt;%c4Description%&lt;/font&gt;&lt;/font&gt;&lt;/div&gt;" id="jjVfLKDrHbmD-UzY3_kH-1">
          <mxCell style="html=1;fontSize=11;dashed=0;whiteSpace=wrap;shape=mxgraph.c4.person2;align=center;metaEdit=1;points=[[0.5,0,0],[1,0.5,0],[1,0.75,0],[0.75,1,0],[0.5,1,0],[0.25,1,0],[0,0.75,0],[0,0.5,0]];resizable=0;fillColor=#dae8fc;strokeColor=#6c8ebf;gradientColor=#7ea6e0;shadow=0;labelBackgroundColor=none;labelBorderColor=none;textShadow=0;fontColor=#FFFFFF;" parent="1" vertex="1">
            <mxGeometry x="220" y="20" width="200" height="180" as="geometry" />
          </mxCell>
        </object>
        <object placeholders="1" c4Name="Dune Game" c4Type="Software System" c4Description="Allows the player to play the game, match with other players, pick AI as opponents." label="&lt;font style=&quot;font-size: 16px&quot;&gt;&lt;b&gt;%c4Name%&lt;/b&gt;&lt;/font&gt;&lt;div&gt;[%c4Type%]&lt;/div&gt;&lt;br&gt;&lt;div&gt;&lt;font style=&quot;font-size: 11px&quot;&gt;&lt;font&gt;%c4Description%&lt;/font&gt;&lt;/font&gt;&lt;/div&gt;" id="jjVfLKDrHbmD-UzY3_kH-2">
          <mxCell style="rounded=1;whiteSpace=wrap;html=1;labelBackgroundColor=none;fillColor=#dae8fc;align=center;arcSize=10;strokeColor=#6c8ebf;metaEdit=1;resizable=0;points=[[0.25,0,0],[0.5,0,0],[0.75,0,0],[1,0.25,0],[1,0.5,0],[1,0.75,0],[0.75,1,0],[0.5,1,0],[0.25,1,0],[0,0.75,0],[0,0.5,0],[0,0.25,0]];gradientColor=#7ea6e0;fontColor=#FFFFFF;" parent="1" vertex="1">
            <mxGeometry x="200" y="350" width="240" height="120" as="geometry" />
          </mxCell>
        </object>
        <object placeholders="1" c4Type="Relationship" c4Description="Manages own account, plays game, &#xa;changes graphic settings etc." label="&lt;div style=&quot;text-align: left&quot;&gt;&lt;div style=&quot;text-align: center&quot;&gt;&lt;b&gt;%c4Description%&lt;/b&gt;&lt;/div&gt;" id="jjVfLKDrHbmD-UzY3_kH-3">
          <mxCell style="endArrow=blockThin;html=1;fontSize=10;fontColor=#404040;strokeWidth=1;endFill=1;strokeColor=#828282;elbow=vertical;metaEdit=1;endSize=14;startSize=14;jumpStyle=arc;jumpSize=16;rounded=0;edgeStyle=orthogonalEdgeStyle;exitX=0.5;exitY=1;exitDx=0;exitDy=0;exitPerimeter=0;" parent="1" source="jjVfLKDrHbmD-UzY3_kH-1" target="jjVfLKDrHbmD-UzY3_kH-2" edge="1">
            <mxGeometry width="240" relative="1" as="geometry">
              <mxPoint x="300" y="280" as="sourcePoint" />
              <mxPoint x="540" y="280" as="targetPoint" />
            </mxGeometry>
          </mxCell>
        </object>
        <object placeholders="1" c4Name="Administrator" c4Type="Person" c4Description="Responsible with overseeing&#xa;the server, accounts and matches." label="&lt;font style=&quot;font-size: 16px&quot;&gt;&lt;b&gt;%c4Name%&lt;/b&gt;&lt;/font&gt;&lt;div&gt;[%c4Type%]&lt;/div&gt;&lt;br&gt;&lt;div&gt;&lt;font style=&quot;font-size: 11px&quot;&gt;&lt;font&gt;%c4Description%&lt;/font&gt;&lt;/font&gt;&lt;/div&gt;" id="jjVfLKDrHbmD-UzY3_kH-4">
          <mxCell style="html=1;fontSize=11;dashed=0;whiteSpace=wrap;shape=mxgraph.c4.person2;align=center;metaEdit=1;points=[[0.5,0,0],[1,0.5,0],[1,0.75,0],[0.75,1,0],[0.5,1,0],[0.25,1,0],[0,0.75,0],[0,0.5,0]];resizable=0;fillColor=#dae8fc;strokeColor=#6c8ebf;gradientColor=#7ea6e0;fontColor=#FFFFFF;" parent="1" vertex="1">
            <mxGeometry x="490" y="20" width="200" height="180" as="geometry" />
          </mxCell>
        </object>
        <object placeholders="1" c4Type="Relationship" c4Description="Manages player accounts, &#xa;monitors matches, performance etc." label="&lt;div style=&quot;text-align: left&quot;&gt;&lt;div style=&quot;text-align: center&quot;&gt;&lt;b&gt;%c4Description%&lt;/b&gt;&lt;/div&gt;" id="jjVfLKDrHbmD-UzY3_kH-5">
          <mxCell style="endArrow=blockThin;html=1;fontSize=10;fontColor=#404040;strokeWidth=1;endFill=1;strokeColor=#828282;elbow=vertical;metaEdit=1;endSize=14;startSize=14;jumpStyle=arc;jumpSize=16;rounded=0;edgeStyle=orthogonalEdgeStyle;exitX=0.5;exitY=1;exitDx=0;exitDy=0;exitPerimeter=0;entryX=1;entryY=0.5;entryDx=0;entryDy=0;entryPerimeter=0;" parent="1" source="jjVfLKDrHbmD-UzY3_kH-4" target="jjVfLKDrHbmD-UzY3_kH-2" edge="1">
            <mxGeometry x="-0.3889" width="240" relative="1" as="geometry">
              <mxPoint x="600.5" y="240" as="sourcePoint" />
              <mxPoint x="600" y="390" as="targetPoint" />
              <mxPoint as="offset" />
            </mxGeometry>
          </mxCell>
        </object>
      </root>
    </mxGraphModel>
  </diagram>
</mxfile>
